<svg id="Layer_1" data-name="Layer 1" xmlns="http://www.w3.org/2000/svg" viewBox="0 0 127.49 50"><defs><style>.cls-1{fill:#fff;}</style></defs><rect class="cls-1" y="0.83" width="11.19" height="18.34"/><polygon class="cls-1" points="11.19 30.83 0 30.83 0 49.17 35.43 49.17 35.43 40.05 11.19 40.05 11.19 30.83"/><path class="cls-1" d="M64.9,10a15.54,15.54,0,0,1,12.15,5.66l7.18-6.63C79.68,3.54,72.7.5,64.35.5c-13,0-23.06,7.73-25.62,19.17H50.41C52.54,13.79,57.94,10,64.9,10Z" transform="translate(-0.26 -0.5)"/><path class="cls-1" d="M64.9,41c-7,0-12.36-3.76-14.49-9.64H38.73C41.29,42.77,51.38,50.5,64.28,50.5c8.42,0,15.4-3,20-8.63l-7.18-6.63A15.39,15.39,0,0,1,64.9,41Z" transform="translate(-0.26 -0.5)"/><path class="cls-1" d="M104.61,19.67c-3-1-5-2.28-5-4.67,0-3,2.56-5.52,9.19-5.52a27.27,27.27,0,0,1,13.4,3.8l3.45-8.5C121.18,2,115,.5,108.89.5,95.15.5,88.52,7.34,88.52,15.56a13.63,13.63,0,0,0,.59,4.11Z" transform="translate(-0.26 -0.5)"/><path class="cls-1" d="M127.11,31.33H110.8c3.41,1,5.82,2.36,5.82,5,0,3-2.69,5.18-9.32,5.18a28.41,28.41,0,0,1-16-5l-3.8,8.43c4.28,3.31,12,5.59,19.68,5.59,13.81,0,20.51-6.91,20.51-15A13.11,13.11,0,0,0,127.11,31.33Z" transform="translate(-0.26 -0.5)"/><polygon class="cls-1" points="7.15 27.91 2.26 27.91 2.26 19.99 0 19.99 0 29.75 7.15 29.75 7.15 27.91"/><rect class="cls-1" x="16.23" y="19.99" width="2.26" height="9.76"/><path class="cls-1" d="M33.66,22.25a3.16,3.16,0,0,1,2.46,1.14l1.45-1.34a5.06,5.06,0,0,0-4-1.73,5.06,5.06,0,1,0,0,10.1,5,5,0,0,0,4-1.75l-1.45-1.33a3.14,3.14,0,0,1-2.46,1.15,3,3,0,0,1-3.12-3.12A3,3,0,0,1,33.66,22.25Z" transform="translate(-0.26 -0.5)"/><path class="cls-1" d="M46.07,25.37a5.05,5.05,0,0,0,5.34,5.05,5.06,5.06,0,1,0,0-10.1A5.05,5.05,0,0,0,46.07,25.37Zm8.39,0a3.05,3.05,0,1,1-6.1,0,3.05,3.05,0,1,1,6.1,0Z" transform="translate(-0.26 -0.5)"/><path class="cls-1" d="M74.72,24c0-2.19-1.63-3.54-4.24-3.54H66.26v9.76h2.26V27.53h2.07l1.89,2.72H74.9l-2.19-3.14A3.16,3.16,0,0,0,74.72,24Zm-4.36,1.7H68.52v-3.4h1.84c1.38,0,2.07.63,2.07,1.7S71.74,25.73,70.36,25.73Z" transform="translate(-0.26 -0.5)"/><path class="cls-1" d="M91.66,27.39c0-3.58-5.68-2.34-5.68-4.14,0-.61.52-1.11,1.86-1.11a5.54,5.54,0,0,1,2.7.76l.7-1.71a6.55,6.55,0,0,0-3.39-.87c-2.77,0-4.11,1.38-4.11,3,0,3.63,5.67,2.37,5.67,4.2,0,.6-.54,1-1.88,1a5.73,5.73,0,0,1-3.22-1l-.77,1.7a7,7,0,0,0,4,1.13C90.31,30.42,91.66,29,91.66,27.39Z" transform="translate(-0.26 -0.5)"/><polygon class="cls-1" points="108.13 21.8 108.13 19.99 100.76 19.99 100.76 29.75 108.31 29.75 108.31 27.94 103 27.94 103 25.68 107.53 25.68 107.53 23.92 103 23.92 103 21.8 108.13 21.8"/><path class="cls-1" d="M118.18,20.49v9.76h2.26V27.53h2.07l1.88,2.72h2.43l-2.19-3.14a3.16,3.16,0,0,0,2-3.08c0-2.19-1.63-3.54-4.24-3.54ZM124.35,24c0,1.06-.69,1.7-2.07,1.7h-1.84v-3.4h1.84C123.66,22.33,124.35,23,124.35,24Z" transform="translate(-0.26 -0.5)"/></svg>